<?xml version="1.0" encoding="UTF-8"?>
<svg width="18px" height="18px" viewBox="0 0 18 18" version="1.1" xmlns="http://www.w3.org/2000/svg" xmlns:xlink="http://www.w3.org/1999/xlink">
    <!-- Generator: Sketch 51.3 (57544) - http://www.bohemiancoding.com/sketch -->
    <title>Imported Layers Copy</title>
    <desc>Created with Sketch.</desc>
    <defs></defs>
    <g id="Other-buttons" stroke="none" stroke-width="1" fill="none" fill-rule="evenodd">
        <g id="btn_facebook_signin" transform="translate(-15.000000, -15.000000)" fill="#FFFFFF">
            <path d="M32.0065719,15 L15.9934281,15 C15.4447159,15 15,15.4446484 15,15.9934281 L15,32.0065719 C15,32.5552167 15.4447159,33 15.9934281,33 L24.6143338,33 L24.6143338,26.0294799 L22.268616,26.0294799 L22.268616,23.3128958 L24.6143338,23.3128958 L24.6143338,21.3095161 C24.6143338,18.9845707 26.0343357,17.7186074 28.1083277,17.7186074 C29.1017558,17.7186074 29.9556453,17.7925918 30.2044407,17.8256386 L30.2044407,20.2553223 L28.766027,20.2559968 C27.6380511,20.2559968 27.4196722,20.7919624 27.4196722,21.5784768 L27.4196722,23.3128958 L30.1097514,23.3128958 L29.7594551,26.0294799 L27.4196722,26.0294799 L27.4196722,33 L32.0065719,33 C32.5552167,33 33,32.5552167 33,32.0065719 L33,15.9934281 C33,15.4446484 32.5552167,15 32.0065719,15" id="Imported-Layers-Copy"></path>
        </g>
    </g>
</svg>