<?xml version="1.0" encoding="UTF-8"?>
<svg width="18px" height="18px" viewBox="0 0 18 16" version="1.1" xmlns="http://www.w3.org/2000/svg" xmlns:xlink="http://www.w3.org/1999/xlink">
    <!-- Generator: Sketch 51.3 (57544) - http://www.bohemiancoding.com/sketch -->
    <title>Fill 1</title>
    <desc>Created with Sketch.</desc>
    <defs></defs>
    <g id="Other-buttons" stroke="none" stroke-width="1" fill="none" fill-rule="evenodd">
        <g id="btn_twitter_signin" transform="translate(-14.000000, -16.000000)" fill="#FFFFFF">
            <path d="M32,18.6509558 C31.3377154,18.9446681 30.6259849,19.1431757 29.8789641,19.2324547 C30.6414573,18.7753934 31.2269725,18.05168 31.5027104,17.1893734 C30.7892022,17.6125272 29.9988588,17.9198683 29.1576868,18.0855218 C28.4840119,17.3677998 27.524262,16.9192977 26.462131,16.9192977 C24.4226051,16.9192977 22.7690991,18.5727378 22.7690991,20.6121321 C22.7690991,20.9015648 22.8018216,21.1834259 22.8647646,21.4536991 C19.7955668,21.2996993 17.074465,19.8294919 15.253067,17.5952771 C14.9351915,18.1406957 14.753078,18.7750642 14.753078,19.4518336 C14.753078,20.7330144 15.4050916,21.8633556 16.3959838,22.5255744 C15.7905849,22.506415 15.2212005,22.3403007 14.7232525,22.0637068 C14.7229891,22.0791134 14.7229891,22.0945858 14.7229891,22.110124 C14.7229891,23.8993921 15.9959399,25.3919851 17.6853287,25.7311928 C17.3754197,25.8155997 17.0491825,25.8607001 16.712345,25.8607001 C16.4743992,25.8607001 16.2430374,25.8375903 16.0176012,25.794465 C16.4875014,27.2616438 17.8513113,28.3293054 19.4672885,28.3591309 C18.2034237,29.3495622 16.6110831,29.9399495 14.8809393,29.9399495 C14.5828816,29.9399495 14.288906,29.9225019 14,29.8883968 C15.6342807,30.9361747 17.5754417,31.5474992 19.660924,31.5474992 C26.453506,31.5474992 30.1679359,25.9203511 30.1679359,21.0403555 C30.1679359,20.8802326 30.1643806,20.7209656 30.1572698,20.5626204 C30.8787447,20.0419576 31.5048831,19.3915242 32,18.6509558" id="Fill-1"></path>
        </g>
    </g>
</svg>
