<!--?xml version="1.0" encoding="utf-8"?-->
<!-- Generator: Adobe Illustrator 18.1.1, SVG Export Plug-In . SVG Version: 6.00 Build 0)  -->

<svg version="1.1" id="_x32_" xmlns="http://www.w3.org/2000/svg" xmlns:xlink="http://www.w3.org/1999/xlink" x="0px" y="0px" viewBox="0 0 512 512" style="width: 128px; height: 128px; opacity: 1;" xml:space="preserve">
<style type="text/css">
	.st0{fill:#4B4B4B;}
</style>
<g>
	<path class="st0" d="M369.596,279.997l-0.224-0.58l-28.538-51.477c-2.307-5.844-3.481-12.011-3.481-18.204
		c0-4.929,0.741-9.858,2.209-14.626l31.698-92.298v0.021c1.734-4.971,2.573-10.158,2.573-15.318c0-9.103-2.657-18.128-7.816-25.896
		c-7.984-11.969-21.016-19.547-35.334-20.651l0.014-0.014L302.215,37.2c-0.629-0.077-1.104-0.566-1.175-1.195l-1.664-16.667
		c-0.546-5.46-3.132-10.347-6.949-13.787c-3.804-3.44-8.921-5.551-14.416-5.544V0h-44.03c-5.481,0-10.598,2.111-14.402,5.551
		c-3.817,3.44-6.411,8.326-6.956,13.787l-1.671,16.66c-0.056,0.636-0.545,1.125-1.168,1.202l-28.475,3.754v0.014
		c-14.311,1.104-27.342,8.682-35.305,20.651c-5.174,7.768-7.844,16.793-7.844,25.896c0,5.16,0.838,10.347,2.579,15.311
		l31.705,92.312c1.468,4.768,2.196,9.676,2.196,14.598c0,6.194-1.175,12.367-3.468,18.204l-28.552,51.49l-0.224,0.566
		c-2.908,7.208-4.355,14.821-4.355,22.414c0,9.522,2.271,19.016,6.76,27.65c8.068,15.541,22.539,26.77,39.598,30.726l31.677,7.369
		c9.9,2.293,19.946,3.734,30.028,4.306v97.778l-79.952,22.386L171.584,512l84.586-23.686L340.764,512l5.426-19.373l-79.951-22.386
		v-97.799c9.97-0.58,19.897-2.007,29.684-4.286l31.684-7.369c17.059-3.956,31.517-15.185,39.598-30.726
		c4.489-8.648,6.754-18.128,6.754-27.65C373.959,294.818,372.504,287.205,369.596,279.997z M349.35,320.776
		c-5.356,10.326-14.975,17.779-26.315,20.415l-31.671,7.369c-11.626,2.705-23.504,4.062-35.361,4.062
		c-11.871,0-23.735-1.357-35.368-4.062l-31.677-7.369c-11.326-2.636-20.946-10.088-26.302-20.415
		c-2.992-5.726-4.488-12.031-4.488-18.366c0-4.894,0.923-9.802,2.74-14.458l28.552-51.483l0.223-0.574
		c3.384-8.375,5.09-17.268,5.09-26.161c0-6.949-1.036-13.892-3.119-20.61l-0.049-0.168l-31.852-92.675v-0.035
		c-0.993-2.838-1.476-5.795-1.476-8.732c0-5.187,1.51-10.319,4.461-14.738c4.607-6.928,12.192-11.298,20.505-11.815l0.343-0.014
		l28.832-3.789c9.886-1.314,17.562-9.236,18.554-19.17l1.664-16.653c0.035-0.364,0.196-0.616,0.447-0.853
		c0.252-0.238,0.531-0.349,0.895-0.364h44.03c0.377,0.014,0.644,0.126,0.909,0.364c0.252,0.238,0.398,0.49,0.433,0.853l1.664,16.667
		c0.993,9.92,8.683,17.842,18.555,19.156l28.86,3.789l0.321,0.014c8.306,0.518,15.898,4.887,20.512,11.815
		c2.95,4.419,4.446,9.55,4.461,14.738c0,2.937-0.49,5.887-1.482,8.732v0.035l-31.866,92.697l-0.042,0.147
		c-2.069,6.718-3.104,13.661-3.104,20.61c0,8.893,1.706,17.778,5.076,26.161l0.238,0.574l28.552,51.483
		c1.818,4.663,2.74,9.564,2.74,14.458C353.838,308.745,352.342,315.037,349.35,320.776z"></path>
	<polygon class="st0" points="140.739,102.834 140.739,102.826 140.732,102.812 	"></polygon>
</g>
</svg>
