<?xml version="1.0" encoding="UTF-8" standalone="no"?><!DOCTYPE svg PUBLIC "-//W3C//DTD SVG 1.1//EN" "http://www.w3.org/Graphics/SVG/1.1/DTD/svg11.dtd"><svg width="100%" height="100%" viewBox="0 0 245 245" version="1.1" xmlns="http://www.w3.org/2000/svg" xmlns:xlink="http://www.w3.org/1999/xlink" xml:space="preserve" xmlns:serif="http://www.serif.com/" style="fill-rule:evenodd;clip-rule:evenodd;stroke-linejoin:round;stroke-miterlimit:1.41421;"><g id="art"><path d="M121.992,0c-67.374,0 -121.992,54.618 -121.992,121.992c0,51.682 32.154,95.824 77.534,113.599c-1.066,-9.652 -2.029,-24.457 0.424,-34.994c2.217,-9.521 14.305,-60.638 14.305,-60.638c0,0 -3.649,-7.308 -3.649,-18.112c0,-16.963 9.832,-29.627 22.074,-29.627c10.408,0 15.435,7.814 15.435,17.184c0,10.467 -6.664,26.116 -10.104,40.618c-2.873,12.142 6.09,22.044 18.066,22.044c21.682,0 38.348,-22.862 38.348,-55.863c0,-29.209 -20.987,-49.631 -50.956,-49.631c-34.711,0 -55.085,26.035 -55.085,52.941c0,10.485 4.039,21.728 9.079,27.84c0.996,1.208 1.143,2.266 0.846,3.499c-0.926,3.853 -2.984,12.139 -3.388,13.835c-0.533,2.233 -1.769,2.707 -4.08,1.631c-15.237,-7.092 -24.762,-29.368 -24.762,-47.26c0,-38.482 27.96,-73.823 80.605,-73.823c42.318,0 75.206,30.156 75.206,70.457c0,42.043 -26.51,75.879 -63.303,75.879c-12.362,0 -23.983,-6.422 -27.961,-14.008c0,0 -6.117,23.292 -7.6,29c-2.755,10.596 -10.189,23.878 -15.162,31.981c11.414,3.534 23.544,5.44 36.12,5.44c67.375,0 121.993,-54.618 121.993,-121.992c0,-67.374 -54.618,-121.992 -121.993,-121.992" style="fill:#fff;fill-rule:nonzero;"/></g></svg>